# xmcd CD database file
#
# Track frame offsets:
#	150
#	6827
#	27945
#	49215
#	72150
#	96982
#	120597
#	144812
#	151657
#	178377
#	203877
#	226200
#	250550
#	290022
#	313030
#
# Disc length: 4219 seconds
#
# Revision: 0
# Processed by: cddbd v1.5.1PL0 Copyright (c) Steve Scherf et al.
# Submitted via: CDex 1.51
#
DISCID=ca10790f
DTITLE=BUDDHA BRAND - DE LARGE プレゼンツ：病める無限のラップの世界
DYEAR=2003
DGENRE=Hip-Hop
TTITLE0=RE-ENTER DA 76 ZONE
TTITLE1=ILLISON
TTITLE2=ILL伝導者(VERSION SPIT FUNK 無限の3本MIC)
TTITLE3=FUNKY METHODIST
TTITLE4=人間発電所(CLASSIC MIX)
TTITLE5=HI-JACK(のっとり)
TTITLE6=大怪我3000
TTITLE7=KRUSH GROOVE 3
TTITLE8=REMIX(KRUSH GROOVE4)
TTITLE9=DON'T TEST DA MASTER
TTITLE10=RETURN OF HTE BUDDHA BROS.
TTITLE11=天運我に有り(撃つ用意)
TTITLE12=ブッダの休日
TTITLE13=ILL夢MAKERS 76
TTITLE14=WORDS FROM TRUE MASTER
EXTD=YEAR: 2003
EXTT0=
EXTT1=
EXTT2=
EXTT3=
EXTT4=
EXTT5=
EXTT6=
EXTT7=
EXTT8=
EXTT9=
EXTT10=
EXTT11=
EXTT12=
EXTT13=
EXTT14=
PLAYORDER=
